# xmcd
#
# Track frame offsets: 
#        150
#        24272
#        52027
#        77892
#        112137
#        137710
#        171455
#        190555
#        220417
#
# Disc length: 3275 seconds
#
# Revision: 4
# Processed by: cddbd v1.5.1PL2 Copyright (c) Steve Scherf et al.
# Submitted via: ExactAudioCopy v0.95b3
#
DISCID=800cc909
DTITLE=Barney Kessel - Spontaneous Combustion
DYEAR=1900
DGENRE=
TTITLE0=Moonlight Walk
TTITLE1=Bluesy
TTITLE2='Around midnight
TTITLE3=Star Fire
TTITLE4=Ah, Sweet Mystery of Life
TTITLE5=Almost the Blues
TTITLE6=Everything I Have is Yours
TTITLE7=Get Me no the Church on Time
TTITLE8=Shaw 'Nuff
EXTD=
EXTT0=
EXTT1=
EXTT2=
EXTT3=
EXTT4=
EXTT5=
EXTT6=
EXTT7=
EXTT8=
PLAYORDER=
